<svg version="1.1" viewBox="0.0 0.0 100.0 100.0" fill="none" stroke="none" stroke-linecap="square" stroke-miterlimit="10" xmlns:xlink="http://www.w3.org/1999/xlink" xmlns="http://www.w3.org/2000/svg"><clipPath id="p.0"><path d="m0 0l100.0 0l0 100.0l-100.0 0l0 -100.0z" clip-rule="nonzero"/></clipPath><g clip-path="url(#p.0)"><path fill="#000000" fill-opacity="0.0" d="m0 0l100.0 0l0 100.0l-100.0 0z" fill-rule="evenodd"/><path fill="#000000" fill-opacity="0.0" d="m-3.0 -8.173228l58.14173 0l0 116.34645l-58.14173 0z" fill-rule="evenodd"/><path fill="#17d3e8" d="m17.765625 60.82989l29.59375 0l-2.40625 -6.40625l-24.796875 0l-2.390625 6.40625zm14.640625 -26.5625l9.59375 22.5625l0.640625 1.59375l8.15625 19.203129l7.609375 0l-26.0 -58.79688l-26.0 58.79688l7.59375 0l8.3125 -19.687504l0.640625 -1.4375l9.453125 -22.234375z" fill-rule="nonzero"/><path fill="#000000" fill-opacity="0.0" d="m50.39371 32.181103l64.34645 0l0 64.62991l-64.34645 0z" fill-rule="evenodd"/><path fill="#17d3e8" d="m62.909336 71.75547l-2.359375 1.453125q0.484375 1.015625 1.4375 1.984375q0.953125 0.96875 2.3281212 1.59375q1.390625 0.609375 3.109375 0.609375q2.640625 0 4.265625 -1.484375q1.625 -1.5 1.625 -3.75q0 -1.53125 -0.734375 -2.5q-0.71875 -0.96875 -1.953125 -1.65625q-1.234375 -0.6875 -2.71875 -1.28125q-0.90625 -0.375 -1.734375 -0.78125q-0.8125 -0.421875 -1.34375 -0.9375q-0.515625 -0.53125 -0.515625 -1.2031212q0 -0.859375 0.671875 -1.265625q0.671875 -0.40625 1.609375 -0.40625q1.34375 0 2.40625 0.640625q1.0625 0.625 1.78125 1.5937462l2.390625 -1.5312462q-0.53125 -0.96875 -1.46875 -1.703125q-0.921875 -0.75 -2.140625 -1.203125q-1.21875 -0.453125 -2.59375 -0.453125q-1.375 0 -2.671875 0.484375q-1.2812462 0.484375 -2.0937462 1.5q-0.796875 1.0 -0.796875 2.53125q0 1.4999962 0.765625 2.4843712q0.765625 0.984375 1.9062462 1.609375q1.140625 0.609375 2.25 1.0625q1.015625 0.375 1.90625 0.8125q0.90625 0.421875 1.484375 1.046875q0.578125 0.609375 0.578125 1.5q0 1.0 -0.734375 1.578125q-0.734375 0.578125 -2.0 0.578125q-1.046875 0 -1.921875 -0.390625q-0.875 -0.390625 -1.546875 -1.0625q-0.6718712 -0.671875 -1.1874962 -1.453125zm14.137035 -23.843746l0 29.109371l2.984375 0l0 -29.109371l-2.984375 0zm9.328125 11.9375l-7.453125 7.093746l8.203125 10.078125l3.734375 0l-8.203125 -10.078125l7.453125 -7.093746l-3.734375 0z" fill-rule="nonzero"/></g></svg>